<svg width="447" height="176" viewBox="0 0 447 176" fill="none" xmlns="http://www.w3.org/2000/svg">
<path d="M14.207 62C11.6206 62 9.63957 61.3397 8.26384 60.019C6.94314 58.6432 6.28279 56.6897 6.28279 54.1584V11.6484C6.28279 9.11704 6.94314 7.19102 8.26384 5.87032C9.63957 4.49459 11.6206 3.80673 14.207 3.80673H30.3855C40.5109 3.80673 48.325 6.33807 53.8279 11.4007C59.3859 16.4634 62.1648 23.6172 62.1648 32.8621C62.1648 37.4845 61.4495 41.6117 60.0187 45.2436C58.5879 48.8205 56.5244 51.8746 53.8279 54.406C51.1315 56.8823 47.8022 58.7808 43.8402 60.1015C39.9331 61.3672 35.4482 62 30.3855 62H14.207ZM21.4708 49.701H29.395C32.3116 49.701 34.8154 49.3433 36.9065 48.6279C39.0526 47.9126 40.8136 46.867 42.1893 45.4913C43.62 44.1155 44.6656 42.3821 45.3259 40.291C46.0413 38.1999 46.399 35.7236 46.399 32.8621C46.399 27.1391 44.9958 22.9293 42.1893 20.2329C39.3828 17.4815 35.118 16.1057 29.395 16.1057H21.4708V49.701ZM84.2975 62.908C81.1608 62.908 78.3819 62.3302 75.9606 61.1746C73.5943 60.019 71.7234 58.4506 70.3476 56.4696C69.0269 54.4335 68.3666 52.1223 68.3666 49.5359C68.3666 46.5643 69.137 44.2256 70.6778 42.5197C72.2186 40.8138 74.6949 39.6032 78.1067 38.8878C81.5185 38.1174 86.0584 37.7322 91.7264 37.7322H96.2663V44.6658H91.7264C89.5803 44.6658 87.7918 44.8309 86.3611 45.1611C84.9854 45.4362 83.9673 45.904 83.307 46.5643C82.6466 47.1697 82.3165 47.9676 82.3165 48.9581C82.3165 50.2238 82.7567 51.2693 83.6371 52.0948C84.5726 52.9202 85.8933 53.3329 87.5992 53.3329C88.975 53.3329 90.1856 53.0303 91.2312 52.4249C92.3317 51.8196 93.2122 50.9942 93.8726 49.9486C94.5329 48.848 94.8631 47.5824 94.8631 46.1516V36.5766C94.8631 34.5955 94.3403 33.1923 93.2948 32.3668C92.3042 31.5414 90.5708 31.1287 88.0945 31.1287C86.7738 31.1287 85.288 31.2938 83.6371 31.6239C81.9863 31.8991 80.1428 32.4219 78.1067 33.1923C76.6209 33.7426 75.3553 33.8251 74.3097 33.4399C73.2642 33.0547 72.4387 32.3943 71.8334 31.4589C71.2831 30.5234 71.008 29.5053 71.008 28.4047C71.063 27.3042 71.4207 26.2586 72.081 25.2681C72.7964 24.2776 73.8695 23.5071 75.3002 22.9569C77.9416 21.9663 80.3629 21.306 82.5641 20.9758C84.8203 20.6456 86.8839 20.4805 88.7549 20.4805C93.2672 20.4805 96.9817 21.1409 99.8982 22.4616C102.87 23.7273 105.071 25.7083 106.502 28.4047C107.988 31.0461 108.73 34.4579 108.73 38.6401V55.314C108.73 57.7352 108.153 59.5787 106.997 60.8444C105.841 62.1101 104.163 62.7429 101.962 62.7429C99.7056 62.7429 97.9722 62.1101 96.7616 60.8444C95.606 59.5787 95.0282 57.7352 95.0282 55.314V53.1678L95.5234 54.3234C95.2483 56.0844 94.6155 57.5977 93.6249 58.8633C92.6344 60.129 91.3412 61.1195 89.7454 61.8349C88.1495 62.5503 86.3336 62.908 84.2975 62.908ZM124.361 62.7429C122.05 62.7429 120.261 62.055 118.995 60.6793C117.73 59.3036 117.097 57.3225 117.097 54.7362V28.6524C117.097 26.066 117.73 24.085 118.995 22.7092C120.261 21.3335 122.05 20.6456 124.361 20.6456C126.727 20.6456 128.543 21.3335 129.809 22.7092C131.129 24.085 131.79 26.066 131.79 28.6524V54.7362C131.79 57.3225 131.157 59.3036 129.891 60.6793C128.626 62.055 126.782 62.7429 124.361 62.7429ZM124.361 14.785C121.774 14.785 119.766 14.1797 118.335 12.9691C116.959 11.7584 116.272 9.9975 116.272 7.68628C116.272 5.43009 116.959 3.69667 118.335 2.48603C119.766 1.27539 121.774 0.670073 124.361 0.670073C127.057 0.670073 129.093 1.27539 130.469 2.48603C131.845 3.69667 132.533 5.43009 132.533 7.68628C132.533 9.9975 131.845 11.7584 130.469 12.9691C129.093 14.1797 127.057 14.785 124.361 14.785ZM155.748 62.908C150.465 62.908 146.558 61.5047 144.027 58.6983C141.551 55.8367 140.312 51.5445 140.312 45.8214V10.4928C140.312 8.07149 140.945 6.22801 142.211 4.96234C143.477 3.69667 145.265 3.06384 147.576 3.06384C149.942 3.06384 151.758 3.69667 153.024 4.96234C154.345 6.22801 155.005 8.07149 155.005 10.4928V45.3262C155.005 47.3623 155.39 48.848 156.161 49.7835C156.986 50.719 158.032 51.1868 159.297 51.1868C159.683 51.1868 160.068 51.1593 160.453 51.1042C160.893 50.9942 161.361 50.9116 161.856 50.8566C162.792 50.8566 163.48 51.2143 163.92 51.9297C164.415 52.6451 164.663 54.1033 164.663 56.3045C164.663 58.2305 164.278 59.6888 163.507 60.6793C162.737 61.6148 161.554 62.2201 159.958 62.4953C159.518 62.5503 158.885 62.6328 158.059 62.7429C157.234 62.853 156.463 62.908 155.748 62.908ZM179.684 77.6007C177.979 77.6007 176.603 77.1605 175.557 76.2801C174.512 75.3996 173.851 74.244 173.576 72.8132C173.356 71.3825 173.604 69.8692 174.319 68.2733L179.85 56.3045V62.2476L165.735 29.9731C165.019 28.3222 164.772 26.7814 164.992 25.3506C165.267 23.9199 166.01 22.7918 167.22 21.9663C168.431 21.0859 170.082 20.6456 172.173 20.6456C173.934 20.6456 175.337 21.0584 176.383 21.8838C177.483 22.6542 178.474 24.195 179.354 26.5062L187.609 47.9676H184.802L193.552 26.4237C194.432 24.1675 195.423 22.6542 196.523 21.8838C197.679 21.0584 199.22 20.6456 201.146 20.6456C202.797 20.6456 204.117 21.0859 205.108 21.9663C206.098 22.7918 206.704 23.9199 206.924 25.3506C207.144 26.7814 206.896 28.3222 206.181 29.9731L187.444 72.0703C186.453 74.2715 185.352 75.7298 184.142 76.4451C182.986 77.2155 181.5 77.6007 179.684 77.6007ZM244.824 62.7429C242.402 62.7429 240.504 62.0825 239.128 60.7618C237.807 59.3861 237.147 57.4326 237.147 54.9012V11.6484C237.147 9.11704 237.807 7.19102 239.128 5.87032C240.504 4.49459 242.485 3.80673 245.071 3.80673H272.558C274.539 3.80673 276.025 4.30199 277.016 5.29252C278.006 6.28304 278.501 7.7138 278.501 9.58478C278.501 11.5108 278.006 12.9966 277.016 14.0421C276.025 15.0327 274.539 15.5279 272.558 15.5279H252.335V27.2491H270.742C272.668 27.2491 274.127 27.7444 275.117 28.7349C276.163 29.7254 276.685 31.1562 276.685 33.0272C276.685 34.9532 276.163 36.4115 275.117 37.402C274.127 38.3925 272.668 38.8878 270.742 38.8878H252.335V54.9012C252.335 60.129 249.831 62.7429 244.824 62.7429ZM290.663 62.7429C288.242 62.7429 286.371 62.1101 285.05 60.8444C283.784 59.5787 283.152 57.7352 283.152 55.314V27.992C283.152 25.6258 283.757 23.8098 284.968 22.5441C286.233 21.2785 288.022 20.6456 290.333 20.6456C292.644 20.6456 294.405 21.2785 295.616 22.5441C296.826 23.8098 297.432 25.6258 297.432 27.992V31.3763H296.606C297.156 28.0746 298.56 25.4607 300.816 23.5347C303.127 21.6086 305.989 20.5906 309.4 20.4805C310.996 20.4255 312.179 20.8382 312.95 21.7187C313.775 22.5441 314.216 24.1125 314.271 26.4237C314.271 28.4047 313.858 29.9731 313.032 31.1287C312.207 32.2843 310.639 32.9722 308.327 33.1923L306.429 33.3574C303.512 33.6325 301.394 34.4579 300.073 35.8337C298.752 37.1544 298.092 39.1354 298.092 41.7768V55.314C298.092 57.7352 297.459 59.5787 296.193 60.8444C294.928 62.1101 293.084 62.7429 290.663 62.7429ZM340.338 62.908C335.386 62.908 331.093 62.055 327.461 60.3491C323.884 58.5882 321.133 56.1119 319.207 52.9202C317.281 49.7285 316.318 45.959 316.318 41.6117C316.318 37.4295 317.226 33.7701 319.042 30.6334C320.913 27.4417 323.444 24.9654 326.636 23.2045C329.883 21.3885 333.57 20.4805 337.697 20.4805C340.723 20.4805 343.475 20.9758 345.951 21.9663C348.427 22.9018 350.546 24.3051 352.307 26.1761C354.068 27.992 355.389 30.1932 356.269 32.7796C357.205 35.3659 357.672 38.2549 357.672 41.4466C357.672 42.5472 357.37 43.3727 356.764 43.9229C356.159 44.4182 355.196 44.6658 353.875 44.6658H328.617V37.7322H346.942L345.621 38.8052C345.621 36.7692 345.346 35.1183 344.796 33.8526C344.245 32.5869 343.42 31.6239 342.319 30.9636C341.274 30.3032 339.953 29.9731 338.357 29.9731C336.651 29.9731 335.165 30.3858 333.9 31.2112C332.689 31.9816 331.754 33.1372 331.093 34.6781C330.433 36.2189 330.103 38.1449 330.103 40.4561V41.199C330.103 45.1061 330.956 47.9126 332.662 49.6185C334.423 51.2693 337.119 52.0948 340.751 52.0948C341.962 52.0948 343.337 51.9572 344.878 51.682C346.474 51.3519 347.987 50.9116 349.418 50.3613C350.849 49.8111 352.087 49.7285 353.132 50.1137C354.178 50.4439 354.976 51.0492 355.526 51.9297C356.132 52.7551 356.462 53.7181 356.517 54.8187C356.572 55.8643 356.324 56.9098 355.774 57.9554C355.224 58.9459 354.316 59.7163 353.05 60.2666C351.124 61.147 349.06 61.8074 346.859 62.2476C344.713 62.6879 342.539 62.908 340.338 62.908ZM380.181 62.908C377.76 62.908 375.283 62.7154 372.752 62.3302C370.276 62 368.02 61.3672 365.983 60.4317C364.608 59.8814 363.617 59.1385 363.012 58.203C362.462 57.2675 362.186 56.277 362.186 55.2314C362.241 54.1859 362.544 53.2504 363.094 52.4249C363.7 51.5445 364.47 50.9392 365.406 50.609C366.396 50.2238 367.497 50.2513 368.707 50.6915C371.019 51.517 373.082 52.1223 374.898 52.5075C376.769 52.8377 378.558 53.0027 380.264 53.0027C382.3 53.0027 383.758 52.7276 384.638 52.1773C385.519 51.572 385.959 50.8016 385.959 49.8661C385.959 49.0406 385.656 48.4078 385.051 47.9676C384.501 47.5273 383.703 47.2247 382.657 47.0596L373.495 45.5738C370.083 44.9685 367.442 43.7303 365.571 41.8594C363.7 39.9333 362.764 37.4295 362.764 34.3479C362.764 31.4864 363.562 29.0376 365.158 27.0015C366.809 24.9104 369.038 23.3145 371.844 22.214C374.706 21.0584 377.98 20.4805 381.667 20.4805C384.143 20.4805 386.399 20.6731 388.435 21.0584C390.471 21.3885 392.452 22.0214 394.378 22.9569C395.589 23.4521 396.442 24.1675 396.937 25.103C397.433 26.0385 397.625 27.029 397.515 28.0746C397.405 29.0651 397.047 30.0006 396.442 30.881C395.892 31.7065 395.121 32.2843 394.131 32.6145C393.14 32.8896 391.985 32.8071 390.664 32.3668C388.848 31.6515 387.225 31.1287 385.794 30.7985C384.418 30.4683 383.125 30.3032 381.914 30.3032C379.658 30.3032 378.062 30.6059 377.127 31.2112C376.191 31.8165 375.724 32.5869 375.724 33.5224C375.724 34.2378 375.971 34.8431 376.467 35.3384C376.962 35.7786 377.732 36.0813 378.778 36.2464L387.94 37.8147C391.462 38.365 394.158 39.5756 396.029 41.4466C397.955 43.2626 398.918 45.7389 398.918 48.8756C398.918 53.3329 397.212 56.7998 393.801 59.2761C390.389 61.6973 385.849 62.908 380.181 62.908ZM412.216 62.7429C409.904 62.7429 408.116 62.1101 406.85 60.8444C405.585 59.5787 404.952 57.7352 404.952 55.314V10.4928C404.952 8.07149 405.585 6.22801 406.85 4.96234C408.116 3.69667 409.904 3.06384 412.216 3.06384C414.582 3.06384 416.398 3.69667 417.664 4.96234C418.984 6.22801 419.645 8.07149 419.645 10.4928V28.4873H418.324C419.645 25.9009 421.516 23.9199 423.937 22.5441C426.413 21.1684 429.22 20.4805 432.356 20.4805C435.603 20.4805 438.272 21.1134 440.363 22.3791C442.454 23.5897 444.022 25.5157 445.068 28.1571C446.114 30.7435 446.636 34.0177 446.636 37.9798V55.314C446.636 57.7352 446.004 59.5787 444.738 60.8444C443.472 62.1101 441.656 62.7429 439.29 62.7429C436.924 62.7429 435.108 62.1101 433.842 60.8444C432.576 59.5787 431.944 57.7352 431.944 55.314V38.5576C431.944 36.0813 431.503 34.3204 430.623 33.2748C429.797 32.2293 428.559 31.7065 426.908 31.7065C424.707 31.7065 422.946 32.4219 421.626 33.8526C420.305 35.2283 419.645 37.0993 419.645 39.4656V55.314C419.645 60.2666 417.168 62.7429 412.216 62.7429ZM27.5791 175.743C25.1578 175.743 23.2868 175.083 21.9661 173.762C20.6454 172.386 19.985 170.488 19.985 168.066V129.188H7.02569C4.98961 129.188 3.42128 128.666 2.3207 127.62C1.27515 126.519 0.752369 124.979 0.752369 122.998C0.752369 120.961 1.27515 119.421 2.3207 118.375C3.42128 117.33 4.98961 116.807 7.02569 116.807H48.1324C50.1685 116.807 51.7093 117.33 52.7549 118.375C53.8554 119.421 54.4057 120.961 54.4057 122.998C54.4057 124.979 53.8554 126.519 52.7549 127.62C51.7093 128.666 50.1685 129.188 48.1324 129.188H35.1731V168.066C35.1731 170.488 34.5402 172.386 33.2746 173.762C32.0089 175.083 30.1104 175.743 27.5791 175.743ZM59.3958 175.743C56.9745 175.743 55.1035 175.11 53.7828 173.844C52.5171 172.579 51.8843 170.735 51.8843 168.314V140.992C51.8843 138.626 52.4896 136.81 53.7002 135.544C54.9659 134.278 56.7544 133.646 59.0656 133.646C61.3768 133.646 63.1377 134.278 64.3484 135.544C65.559 136.81 66.1643 138.626 66.1643 140.992V144.376H65.3389C65.8892 141.075 67.2924 138.461 69.5486 136.535C71.8598 134.609 74.7214 133.591 78.1332 133.481C79.729 133.426 80.9121 133.838 81.6825 134.719C82.508 135.544 82.9482 137.112 83.0032 139.424C83.0032 141.405 82.5905 142.973 81.7651 144.129C80.9396 145.284 79.3713 145.972 77.0601 146.192L75.1616 146.357C72.245 146.633 70.1264 147.458 68.8057 148.834C67.485 150.154 66.8247 152.135 66.8247 154.777V168.314C66.8247 170.735 66.1918 172.579 64.9262 173.844C63.6605 175.11 61.817 175.743 59.3958 175.743ZM94.9385 175.743C92.6273 175.743 90.8389 175.055 89.5732 173.679C88.3075 172.304 87.6747 170.323 87.6747 167.736V141.652C87.6747 139.066 88.3075 137.085 89.5732 135.709C90.8389 134.333 92.6273 133.646 94.9385 133.646C97.3048 133.646 99.1207 134.333 100.386 135.709C101.707 137.085 102.367 139.066 102.367 141.652V167.736C102.367 170.323 101.735 172.304 100.469 173.679C99.2033 175.055 97.3598 175.743 94.9385 175.743ZM94.9385 127.785C92.3522 127.785 90.3436 127.18 88.9128 125.969C87.5371 124.758 86.8492 122.998 86.8492 120.686C86.8492 118.43 87.5371 116.697 88.9128 115.486C90.3436 114.275 92.3522 113.67 94.9385 113.67C97.635 113.67 99.671 114.275 101.047 115.486C102.422 116.697 103.11 118.43 103.11 120.686C103.11 122.998 102.422 124.758 101.047 125.969C99.671 127.18 97.635 127.785 94.9385 127.785ZM128.885 175.743C126.959 175.743 125.308 175.275 123.932 174.34C122.611 173.349 121.511 171.891 120.63 169.965L108.826 142.973C108.166 141.322 107.946 139.781 108.166 138.351C108.386 136.92 109.074 135.792 110.23 134.966C111.44 134.086 113.091 133.646 115.182 133.646C116.943 133.646 118.347 134.058 119.392 134.884C120.493 135.654 121.483 137.195 122.364 139.506L130.701 160.968H127.894L136.644 139.424C137.524 137.167 138.515 135.654 139.615 134.884C140.716 134.058 142.229 133.646 144.155 133.646C145.806 133.646 147.127 134.086 148.117 134.966C149.163 135.792 149.796 136.92 150.016 138.351C150.236 139.781 149.961 141.322 149.19 142.973L137.139 170.047C136.314 171.973 135.213 173.404 133.837 174.34C132.517 175.275 130.866 175.743 128.885 175.743ZM162.892 175.743C160.581 175.743 158.792 175.055 157.527 173.679C156.261 172.304 155.628 170.323 155.628 167.736V141.652C155.628 139.066 156.261 137.085 157.527 135.709C158.792 134.333 160.581 133.646 162.892 133.646C165.258 133.646 167.074 134.333 168.34 135.709C169.661 137.085 170.321 139.066 170.321 141.652V167.736C170.321 170.323 169.688 172.304 168.422 173.679C167.157 175.055 165.313 175.743 162.892 175.743ZM162.892 127.785C160.306 127.785 158.297 127.18 156.866 125.969C155.491 124.758 154.803 122.998 154.803 120.686C154.803 118.43 155.491 116.697 156.866 115.486C158.297 114.275 160.306 113.67 162.892 113.67C165.588 113.67 167.624 114.275 169 115.486C170.376 116.697 171.064 118.43 171.064 120.686C171.064 122.998 170.376 124.758 169 125.969C167.624 127.18 165.588 127.785 162.892 127.785ZM192.958 175.908C189.822 175.908 187.043 175.33 184.622 174.175C182.255 173.019 180.384 171.451 179.009 169.47C177.688 167.433 177.028 165.122 177.028 162.536C177.028 159.564 177.798 157.226 179.339 155.52C180.88 153.814 183.356 152.603 186.768 151.888C190.179 151.117 194.719 150.732 200.387 150.732H204.927V157.666H200.387C198.241 157.666 196.453 157.831 195.022 158.161C193.646 158.436 192.628 158.904 191.968 159.564C191.308 160.17 190.977 160.968 190.977 161.958C190.977 163.224 191.418 164.269 192.298 165.095C193.234 165.92 194.554 166.333 196.26 166.333C197.636 166.333 198.847 166.03 199.892 165.425C200.993 164.82 201.873 163.994 202.534 162.949C203.194 161.848 203.524 160.582 203.524 159.152V149.577C203.524 147.596 203.001 146.192 201.956 145.367C200.965 144.541 199.232 144.129 196.755 144.129C195.435 144.129 193.949 144.294 192.298 144.624C190.647 144.899 188.804 145.422 186.768 146.192C185.282 146.743 184.016 146.825 182.971 146.44C181.925 146.055 181.1 145.394 180.494 144.459C179.944 143.523 179.669 142.505 179.669 141.405C179.724 140.304 180.082 139.259 180.742 138.268C181.457 137.278 182.53 136.507 183.961 135.957C186.603 134.966 189.024 134.306 191.225 133.976C193.481 133.646 195.545 133.481 197.416 133.481C201.928 133.481 205.643 134.141 208.559 135.462C211.531 136.727 213.732 138.708 215.163 141.405C216.648 144.046 217.391 147.458 217.391 151.64V168.314C217.391 170.735 216.814 172.579 215.658 173.844C214.502 175.11 212.824 175.743 210.623 175.743C208.367 175.743 206.633 175.11 205.423 173.844C204.267 172.579 203.689 170.735 203.689 168.314V166.168L204.184 167.323C203.909 169.084 203.276 170.598 202.286 171.863C201.295 173.129 200.002 174.12 198.406 174.835C196.81 175.55 194.995 175.908 192.958 175.908ZM256.31 155.932C254.879 155.932 253.724 155.465 252.843 154.529C252.018 153.594 251.495 152.3 251.275 150.65L248.386 125.721C248.001 122.86 248.523 120.549 249.954 118.788C251.385 116.972 253.504 116.064 256.31 116.064C259.172 116.064 261.29 116.972 262.666 118.788C264.042 120.549 264.537 122.86 264.152 125.721L261.345 150.65C261.125 152.3 260.602 153.594 259.777 154.529C258.951 155.465 257.796 155.932 256.31 155.932ZM256.31 175.495C253.834 175.495 251.853 174.752 250.367 173.267C248.936 171.781 248.221 169.827 248.221 167.406C248.221 165.04 248.936 163.141 250.367 161.71C251.853 160.225 253.834 159.482 256.31 159.482C258.896 159.482 260.877 160.225 262.253 161.71C263.684 163.141 264.399 165.04 264.399 167.406C264.399 169.827 263.684 171.781 262.253 173.267C260.877 174.752 258.896 175.495 256.31 175.495Z" fill="white"/>
</svg>
