<svg width="240" height="79" viewBox="0 0 240 79" fill="none" xmlns="http://www.w3.org/2000/svg">
<path d="M26.7655 21.1313V25.0456H16.7152V58H11.9017V25.0456H1.79847V21.1313H26.7655ZM37.5043 33.7206C38.3506 32.0632 39.5496 30.776 41.1012 29.8592C42.6881 28.9423 44.61 28.4839 46.8669 28.4839V33.4561H45.5974C40.202 33.4561 37.5043 36.3831 37.5043 42.2369V58H32.6907V29.0128H37.5043V33.7206ZM54.9096 24.3051C53.9928 24.3051 53.217 23.9877 52.5822 23.3529C51.9475 22.7182 51.6301 21.9424 51.6301 21.0255C51.6301 20.1086 51.9475 19.3328 52.5822 18.6981C53.217 18.0633 53.9928 17.7459 54.9096 17.7459C55.7913 17.7459 56.5318 18.0633 57.1313 18.6981C57.766 19.3328 58.0834 20.1086 58.0834 21.0255C58.0834 21.9424 57.766 22.7182 57.1313 23.3529C56.5318 23.9877 55.7913 24.3051 54.9096 24.3051ZM57.2371 29.0128V58H52.4235V29.0128H57.2371ZM76.2318 53.5567L85.2242 29.0128H90.3551L78.9824 58H73.3754L62.0027 29.0128H67.1865L76.2318 53.5567ZM97.5779 24.3051C96.6611 24.3051 95.8853 23.9877 95.2505 23.3529C94.6157 22.7182 94.2984 21.9424 94.2984 21.0255C94.2984 20.1086 94.6157 19.3328 95.2505 18.6981C95.8853 18.0633 96.6611 17.7459 97.5779 17.7459C98.4595 17.7459 99.2001 18.0633 99.7996 18.6981C100.434 19.3328 100.752 20.1086 100.752 21.0255C100.752 21.9424 100.434 22.7182 99.7996 23.3529C99.2001 23.9877 98.4595 24.3051 97.5779 24.3051ZM99.9054 29.0128V58H95.0918V29.0128H99.9054ZM106.311 43.4006C106.311 40.4384 106.91 37.8465 108.109 35.6249C109.308 33.368 110.948 31.6224 113.029 30.3881C115.144 29.1539 117.49 28.5368 120.064 28.5368C122.603 28.5368 124.807 29.0834 126.676 30.1766C128.545 31.2697 129.938 32.645 130.855 34.3025V29.0128H135.721V58H130.855V52.6046C129.903 54.2973 128.474 55.7078 126.57 56.8363C124.701 57.9295 122.515 58.4761 120.011 58.4761C117.437 58.4761 115.109 57.8413 113.029 56.5718C110.948 55.3023 109.308 53.5214 108.109 51.2293C106.91 48.9371 106.311 46.3276 106.311 43.4006ZM130.855 43.4535C130.855 41.2671 130.414 39.3629 129.532 37.7407C128.651 36.1186 127.452 34.8843 125.935 34.038C124.454 33.1564 122.814 32.7156 121.016 32.7156C119.217 32.7156 117.578 33.1387 116.097 33.9851C114.615 34.8314 113.434 36.0657 112.553 37.6878C111.671 39.31 111.23 41.2142 111.23 43.4006C111.23 45.6223 111.671 47.5618 112.553 49.2192C113.434 50.8414 114.615 52.0932 116.097 52.9749C117.578 53.8212 119.217 54.2444 121.016 54.2444C122.814 54.2444 124.454 53.8212 125.935 52.9749C127.452 52.0932 128.651 50.8414 129.532 49.2192C130.414 47.5618 130.855 45.6399 130.855 43.4535Z" fill="#6564EA"/>
<g clip-path="url(#clip0_31_1768)">
<path d="M199.113 55.0151C198.019 56.0239 196.768 56.844 195.41 57.4424C193.738 58.1731 191.979 58.5138 190.159 58.5138C185.98 58.5138 182.321 57.1424 179.362 54.1232C176.403 51.104 175.062 47.3833 175.062 43.1521C175.062 41.1477 175.408 39.1905 176.136 37.3237C176.834 35.5203 177.875 33.8725 179.2 32.4733C180.566 31.0307 182.144 29.8458 183.972 29.0692C185.834 28.2772 187.841 27.9631 189.854 27.9631C191.738 27.9631 193.58 28.2909 195.32 29.0345C196.714 29.6362 197.997 30.4738 199.113 31.5111V28.7024H205.099V57.8826H199.113V55.0151ZM215.897 55.0151V57.883H209.912V17.7402H215.846V31.5291C216.991 30.4933 218.279 29.6435 219.706 29.0358C221.443 28.2974 223.282 27.9644 225.163 27.9644C227.179 27.9644 229.187 28.2768 231.053 29.0705C232.88 29.8466 234.457 31.035 235.825 32.4737C237.164 33.8783 238.217 35.5357 238.922 37.3511C239.639 39.1988 240.004 41.167 239.996 43.1517C239.996 47.388 238.652 51.1062 235.687 54.1228C232.722 57.1394 229.053 58.5134 224.856 58.5134C223.039 58.5134 221.273 58.1706 219.605 57.442C218.244 56.8435 216.99 56.0233 215.893 55.0142L215.897 55.0151ZM181.152 43.108C181.152 45.7702 181.985 48.093 183.837 50.0112C185.64 51.8793 187.83 52.7848 190.413 52.7848C192.887 52.7848 194.933 51.7623 196.658 49.9919C198.423 48.1795 199.367 46.0247 199.367 43.4778C199.367 40.8293 198.496 38.5494 196.679 36.6333C194.94 34.7973 192.842 33.8009 190.315 33.8009C187.781 33.8009 185.627 34.691 183.832 36.5009C182.024 38.3235 181.152 40.5327 181.152 43.1097V43.108ZM215.688 43.477C215.688 46.0256 216.644 48.1791 218.406 49.9911C220.127 51.761 222.18 52.7831 224.651 52.7831C227.218 52.7831 229.386 51.8699 231.184 50.0172C233.039 48.1045 233.857 45.7745 233.857 43.1063C233.857 40.5276 232.97 38.336 231.16 36.5159C229.366 34.7116 227.228 33.7984 224.694 33.7984C222.176 33.7984 220.09 34.784 218.359 36.6209C216.549 38.5425 215.686 40.8267 215.686 43.4752L215.688 43.477ZM155.677 9.61473C155.317 9.41386 155.024 9.10968 154.835 8.74068C154.647 8.37168 154.57 7.95442 154.616 7.54168C154.662 7.12893 154.829 6.73925 155.094 6.4219C155.359 6.10455 155.712 5.87379 156.107 5.75882C156.502 5.64384 156.922 5.64981 157.314 5.77596C157.706 5.90211 158.051 6.14279 158.308 6.46754C158.564 6.7923 158.719 7.18655 158.754 7.60044C158.788 8.01433 158.701 8.42926 158.502 8.79275C158.235 9.28008 157.788 9.64044 157.258 9.79458C156.728 9.94873 156.159 9.88403 155.677 9.61473ZM152.726 13.4529C152.465 13.3077 152.253 13.0877 152.117 12.8209C151.98 12.554 151.925 12.2523 151.958 11.9538C151.992 11.6553 152.112 11.3734 152.304 11.1439C152.495 10.9143 152.75 10.7474 153.036 10.6641C153.322 10.5809 153.625 10.5851 153.909 10.6762C154.192 10.7673 154.442 10.9413 154.628 11.1761C154.813 11.4109 154.926 11.696 154.951 11.9953C154.976 12.2946 154.913 12.5947 154.769 12.8576C154.576 13.2102 154.252 13.471 153.869 13.5826C153.486 13.6942 153.075 13.6476 152.726 13.4529ZM156.899 16.4798C156.704 16.3716 156.546 16.2075 156.444 16.0084C156.342 15.8094 156.301 15.5842 156.326 15.3615C156.351 15.1387 156.44 14.9283 156.583 14.757C156.726 14.5857 156.916 14.4611 157.13 14.3989C157.343 14.3368 157.57 14.3399 157.781 14.408C157.992 14.476 158.179 14.6058 158.318 14.781C158.456 14.9563 158.54 15.169 158.558 15.3924C158.577 15.6157 158.53 15.8397 158.422 16.0358C158.278 16.299 158.037 16.4935 157.751 16.5768C157.465 16.6601 157.158 16.6252 156.898 16.4798H156.899ZM156.245 22.8744C156.245 23.0524 156.193 23.2264 156.095 23.3744C155.997 23.5224 155.858 23.6377 155.695 23.7058C155.533 23.774 155.353 23.7918 155.181 23.7571C155.008 23.7223 154.849 23.6366 154.724 23.5107C154.6 23.3849 154.515 23.2245 154.481 23.0499C154.446 22.8754 154.464 22.6944 154.531 22.53C154.599 22.3655 154.713 22.225 154.859 22.1261C155.006 22.0272 155.178 21.9744 155.354 21.9744C155.591 21.9744 155.817 22.0692 155.984 22.238C156.152 22.4068 156.245 22.6357 156.245 22.8744ZM153.488 24.2158C153.488 24.1076 153.519 24.0019 153.579 23.912C153.638 23.822 153.723 23.7519 153.822 23.7105C153.921 23.6692 154.03 23.6583 154.135 23.6794C154.24 23.7005 154.336 23.7526 154.412 23.8291C154.488 23.9056 154.539 24.003 154.56 24.1091C154.581 24.2152 154.57 24.3251 154.529 24.425C154.488 24.525 154.419 24.6104 154.33 24.6704C154.241 24.7305 154.136 24.7626 154.029 24.7626C153.958 24.7627 153.887 24.7486 153.822 24.7211C153.756 24.6936 153.696 24.6534 153.646 24.6026C153.596 24.5518 153.556 24.4915 153.529 24.4251C153.502 24.3587 153.488 24.2876 153.488 24.2158ZM160.429 50.5885V19.7939H161.195C162.96 19.7939 162.96 17.7402 161.195 17.7402H150.581C148.817 17.7402 148.817 19.7939 150.581 19.7939H151.348V53.4834C151.349 54.6991 151.828 55.8646 152.679 56.7243C153.53 57.5839 154.684 58.0675 155.887 58.069L156.121 58.063H173.728V50.5885H160.429ZM158.719 31.332C158.719 31.51 158.667 31.684 158.569 31.832C158.471 31.98 158.332 32.0954 158.169 32.1635C158.007 32.2316 157.827 32.2494 157.655 32.2147C157.482 32.18 157.323 32.0942 157.198 31.9684C157.074 31.8425 156.989 31.6822 156.955 31.5076C156.92 31.333 156.938 31.152 157.005 30.9876C157.073 30.8231 157.187 30.6826 157.333 30.5837C157.48 30.4848 157.652 30.432 157.828 30.432C158.065 30.432 158.291 30.5268 158.458 30.6956C158.625 30.8644 158.719 31.0933 158.719 31.332ZM156.5 30.537C156.393 30.5371 156.289 30.5051 156.2 30.4451C156.11 30.385 156.041 30.2997 156 30.1997C155.959 30.0998 155.948 29.9899 155.969 29.8838C155.99 29.7777 156.041 29.6802 156.117 29.6037C156.193 29.5271 156.289 29.475 156.394 29.4539C156.499 29.4327 156.608 29.4435 156.707 29.4849C156.806 29.5263 156.891 29.5964 156.95 29.6863C157.01 29.7763 157.041 29.882 157.041 29.9902C157.041 30.062 157.027 30.1331 157 30.1994C156.973 30.2658 156.933 30.326 156.883 30.3768C156.833 30.4276 156.773 30.4679 156.708 30.4954C156.642 30.5229 156.571 30.537 156.5 30.537ZM159.433 28.1607C157.206 26.3847 155.502 28.4375 152.343 28.1607V19.7939H159.433V28.1607ZM154.057 34.85V49.9975C154.057 50.0738 154.042 50.1494 154.013 50.2199C153.984 50.2904 153.941 50.3545 153.888 50.4084C153.835 50.4624 153.771 50.5052 153.701 50.5344C153.632 50.5636 153.557 50.5786 153.481 50.5786C153.406 50.5786 153.331 50.5636 153.261 50.5344C153.191 50.5052 153.128 50.4624 153.074 50.4084C153.021 50.3545 152.979 50.2904 152.95 50.2199C152.921 50.1494 152.906 50.0738 152.906 49.9975V34.85C152.906 34.7737 152.921 34.6982 152.95 34.6277C152.979 34.5572 153.021 34.4931 153.074 34.4391C153.128 34.3852 153.191 34.3424 153.261 34.3132C153.331 34.284 153.406 34.2689 153.481 34.2689C153.557 34.2689 153.632 34.284 153.701 34.3132C153.771 34.3424 153.835 34.3852 153.888 34.4391C153.941 34.4931 153.984 34.5572 154.013 34.6277C154.042 34.6982 154.057 34.7737 154.057 34.85Z" fill="white"/>
</g>
<defs>
<clipPath id="clip0_31_1768">
<rect width="90.7421" height="52.8371" fill="white" transform="translate(149.258 5.67871)"/>
</clipPath>
</defs>
</svg>
